<svg xmlns="http://www.w3.org/2000/svg" width="27.667" height="18.676" viewBox="0 0 27.667 18.676">
  <path id="Icon_zocial-email" data-name="Icon zocial-email" d="M.072,21.09V5.722q0-.027.08-.507L9.2,12.952.179,21.623a2.261,2.261,0,0,1-.107-.534Zm1.2-16.942a1.15,1.15,0,0,1,.454-.08H26.085a1.511,1.511,0,0,1,.48.08l-9.071,7.764-1.2.96L13.919,14.82l-2.374-1.948-1.2-.96ZM1.3,22.664l9.1-8.724,3.522,2.855,3.522-2.855,9.1,8.724a1.281,1.281,0,0,1-.454.08H1.726a1.208,1.208,0,0,1-.427-.08Zm17.342-9.711,9.018-7.737a1.592,1.592,0,0,1,.08.507V21.09a2.045,2.045,0,0,1-.08.534Z" transform="translate(-0.072 -4.068)" fill="#fff"/>
</svg>
